<svg width="24" height="24" viewBox="0 0 24 24" fill="none" xmlns="http://www.w3.org/2000/svg">
<g id="Page-1">
<g id="icon">
<path id="Combined-Shape" fill-rule="evenodd" clip-rule="evenodd" d="M19.5 4.5V19.5H4.5V4.5H19.5ZM10.8134 8.25H9.35261L6.57914 15.75H7.89707L8.42069 14.2838H11.7407L12.2531 15.75H13.6504L10.8134 8.25ZM15.9899 8.25H14.6772V15.75H15.9899V8.25ZM10.072 9.50832L11.3794 13.25H8.78526L10.072 9.50832ZM20.75 15.75H23.25V18.25H20.75V15.75ZM5.75 20.75H8.25V23.25H5.75V20.75ZM10.75 20.75H13.25V23.25H10.75V20.75ZM5.75 0.75H8.25V3.25H5.75V0.75ZM15.75 20.75H18.25V23.25H15.75V20.75ZM10.75 0.75H13.25V3.25H10.75V0.75ZM15.75 0.75H18.25V3.25H15.75V0.75ZM20.75 10.75H23.25V13.25H20.75V10.75ZM0.75 15.75H3.25V18.25H0.75V15.75ZM20.75 5.75H23.25V8.25H20.75V5.75ZM0.75 10.75H3.25V13.25H0.75V10.75ZM0.75 5.75H3.25V8.25H0.75V5.75Z" fill="#F8F8F8"/>
</g>
</g>
</svg>
