<svg width="25" height="25" viewBox="0 0 25 25" fill="none" xmlns="http://www.w3.org/2000/svg">
<g id="camera" clip-path="url(#clip0_1398_13527)">
<path id="Vector" d="M23.9584 19.7917C23.9584 20.3442 23.7389 20.8741 23.3482 21.2648C22.9575 21.6555 22.4276 21.875 21.8751 21.875H3.12508C2.57255 21.875 2.04264 21.6555 1.65194 21.2648C1.26124 20.8741 1.04175 20.3442 1.04175 19.7917V8.33333C1.04175 7.7808 1.26124 7.25089 1.65194 6.86019C2.04264 6.46949 2.57255 6.25 3.12508 6.25H7.29175L9.37508 3.125H15.6251L17.7084 6.25H21.8751C22.4276 6.25 22.9575 6.46949 23.3482 6.86019C23.7389 7.25089 23.9584 7.7808 23.9584 8.33333V19.7917Z" stroke="#B8B8B8" stroke-width="1.5" stroke-linecap="round" stroke-linejoin="round"/>
<path id="Vector_2" d="M12.5002 17.7083C14.8013 17.7083 16.6668 15.8429 16.6668 13.5417C16.6668 11.2405 14.8013 9.375 12.5002 9.375C10.199 9.375 8.3335 11.2405 8.3335 13.5417C8.3335 15.8429 10.199 17.7083 12.5002 17.7083Z" stroke="#B8B8B8" stroke-width="1.5" stroke-linecap="round" stroke-linejoin="round"/>
</g>
<defs>
<clipPath id="clip0_1398_13527">
<rect width="25" height="25" fill="white"/>
</clipPath>
</defs>
</svg>
