<svg width="24" height="24" viewBox="0 0 24 24" fill="none" xmlns="http://www.w3.org/2000/svg">
  <path d="M12 2C6.486 2 2 5.589 2 10C2 12.908 3.791 15.449 6.5 16.705V22L12 19.5L17.5 22V16.705C20.209 15.449 22 12.908 22 10C22 5.589 17.514 2 12 2Z" fill="#4F46E5"/>
  <path d="M12 6C10.343 6 9 7.343 9 9C9 10.657 10.343 12 12 12C13.657 12 15 10.657 15 9C15 7.343 13.657 6 12 6Z" fill="white"/>
  <path d="M7 9C7 6.239 9.239 4 12 4C14.761 4 17 6.239 17 9C17 11.761 14.761 14 12 14C9.239 14 7 11.761 7 9Z" fill="#4F46E5" fill-opacity="0.2"/>
  <path d="M12 16C8.134 16 5 17.12 5 18.5V19H19V18.5C19 17.12 15.866 16 12 16Z" fill="white"/>
</svg>