<svg width="15" height="16" viewBox="0 0 15 16" fill="none" xmlns="http://www.w3.org/2000/svg">
<g id="Package">
<path id="Icon" d="M10.3125 6.375L4.6875 3.13125M2.04375 4.85L7.5 8.00625L12.9562 4.85M7.5 14.3V8M13.125 10.5V5.5C13.1248 5.2808 13.0669 5.06551 12.9572 4.87573C12.8475 4.68595 12.6898 4.52835 12.5 4.41875L8.125 1.91875C7.93498 1.80904 7.71942 1.75128 7.5 1.75128C7.28058 1.75128 7.06502 1.80904 6.875 1.91875L2.5 4.41875C2.31016 4.52835 2.15249 4.68595 2.04279 4.87573C1.93309 5.06551 1.87522 5.2808 1.875 5.5V10.5C1.87522 10.7192 1.93309 10.9345 2.04279 11.1243C2.15249 11.3141 2.31016 11.4716 2.5 11.5812L6.875 14.0812C7.06502 14.191 7.28058 14.2487 7.5 14.2487C7.71942 14.2487 7.93498 14.191 8.125 14.0812L12.5 11.5812C12.6898 11.4716 12.8475 11.3141 12.9572 11.1243C13.0669 10.9345 13.1248 10.7192 13.125 10.5Z" stroke="#E6E6E6" stroke-linecap="round" stroke-linejoin="round"/>
</g>
</svg>
