<svg width="30" height="30" viewBox="0 0 30 30" fill="none" xmlns="http://www.w3.org/2000/svg">
<g id="code-square-svgrepo-com 1">
<path id="Vector" d="M19.375 11.25L19.5895 11.4645C21.2561 13.1311 22.0895 13.9645 22.0895 15C22.0895 16.0355 21.2561 16.8689 19.5895 18.5355L19.375 18.75" stroke="#F8F8F8" stroke-width="2" stroke-linecap="round"/>
<path id="Vector_2" d="M16.6174 8.96301L14.9998 15L13.3823 21.0371" stroke="#F8F8F8" stroke-width="2" stroke-linecap="round"/>
<path id="Vector_3" d="M10.6251 11.25L10.4106 11.4645C8.74398 13.1311 7.91064 13.9645 7.91064 15C7.91064 16.0355 8.74398 16.8689 10.4106 18.5355L10.6251 18.75" stroke="#F8F8F8" stroke-width="2" stroke-linecap="round"/>
<path id="Vector_4" d="M2.5 15C2.5 9.10744 2.5 6.16116 4.33059 4.33059C6.16116 2.5 9.10744 2.5 15 2.5C20.8925 2.5 23.8389 2.5 25.6694 4.33059C27.5 6.16116 27.5 9.10744 27.5 15C27.5 20.8925 27.5 23.8389 25.6694 25.6694C23.8389 27.5 20.8925 27.5 15 27.5C9.10744 27.5 6.16116 27.5 4.33059 25.6694C2.5 23.8389 2.5 20.8925 2.5 15Z" stroke="#F8F8F8" stroke-width="2"/>
</g>
</svg>
