<svg width="15" height="15" viewBox="0 0 15 15" fill="none" xmlns="http://www.w3.org/2000/svg">
<path fill-rule="evenodd" clip-rule="evenodd" d="M11.25 2.8125H3.75C3.37704 2.8125 3.01935 2.96066 2.75563 3.22438C2.49191 3.4881 2.34375 3.84579 2.34375 4.21875V7.96875C2.34375 8.34171 2.49191 8.6994 2.75563 8.96312C3.01935 9.22684 3.37704 9.375 3.75 9.375H11.25C11.623 9.375 11.9806 9.22684 12.2444 8.96312C12.5081 8.6994 12.6562 8.34171 12.6562 7.96875V4.21875C12.6562 3.84579 12.5081 3.4881 12.2444 3.22438C11.9806 2.96066 11.623 2.8125 11.25 2.8125ZM3.75 1.40625C3.00408 1.40625 2.28871 1.70257 1.76126 2.23001C1.23382 2.75746 0.9375 3.47283 0.9375 4.21875V7.96875C0.9375 8.71467 1.23382 9.43004 1.76126 9.95749C2.28871 10.4849 3.00408 10.7812 3.75 10.7812H6.79688V12.1875H4.45312C4.26664 12.1875 4.0878 12.2616 3.95594 12.3934C3.82408 12.5253 3.75 12.7041 3.75 12.8906C3.75 13.0771 3.82408 13.2559 3.95594 13.3878C4.0878 13.5197 4.26664 13.5938 4.45312 13.5938H10.5469C10.7334 13.5938 10.9122 13.5197 11.0441 13.3878C11.1759 13.2559 11.25 13.0771 11.25 12.8906C11.25 12.7041 11.1759 12.5253 11.0441 12.3934C10.9122 12.2616 10.7334 12.1875 10.5469 12.1875H8.20312V10.7812H11.25C11.9959 10.7812 12.7113 10.4849 13.2387 9.95749C13.7662 9.43004 14.0625 8.71467 14.0625 7.96875V4.21875C14.0625 3.47283 13.7662 2.75746 13.2387 2.23001C12.7113 1.70257 11.9959 1.40625 11.25 1.40625H3.75Z" fill="#E6E6E6"/>
</svg>
