<svg width="24" height="25" viewBox="0 0 24 25" fill="none" xmlns="http://www.w3.org/2000/svg">
<path d="M6 3.98535V15.9854M6 15.9854C4.34315 15.9854 3 17.3285 3 18.9854C3 20.6422 4.34315 21.9854 6 21.9854C7.65685 21.9854 9 20.6422 9 18.9854M6 15.9854C7.65685 15.9854 9 17.3285 9 18.9854M18 9.98535C19.6569 9.98535 21 8.64221 21 6.98535C21 5.3285 19.6569 3.98535 18 3.98535C16.3431 3.98535 15 5.3285 15 6.98535C15 8.64221 16.3431 9.98535 18 9.98535ZM18 9.98535C18 12.3723 17.0518 14.6615 15.364 16.3493C13.6761 18.0371 11.3869 18.9854 9 18.9854" stroke="#B8B8B8" stroke-width="1.5" stroke-linecap="round" stroke-linejoin="round"/>
</svg>
