<svg width="20" height="20" viewBox="0 0 20 20" fill="none" xmlns="http://www.w3.org/2000/svg">
<g id="Github">
<path id="Icon" d="M7.49999 15.8334C3.33332 17.0834 3.33332 13.75 1.66666 13.3334M13.3333 18.3334V15.1084C13.3646 14.711 13.3109 14.3115 13.1758 13.9365C13.0408 13.5615 12.8274 13.2195 12.55 12.9334C15.1667 12.6417 17.9167 11.65 17.9167 7.10003C17.9164 5.93655 17.4689 4.8177 16.6667 3.97503C17.0465 2.95712 17.0197 1.83199 16.5917 0.833363C16.5917 0.833363 15.6083 0.541696 13.3333 2.0667C11.4233 1.54905 9.40998 1.54905 7.49999 2.0667C5.22499 0.541696 4.24166 0.833363 4.24166 0.833363C3.81364 1.83199 3.78678 2.95712 4.16666 3.97503C3.35843 4.82395 2.91043 5.95292 2.91666 7.12503C2.91666 11.6417 5.66666 12.6334 8.28332 12.9584C8.00915 13.2417 7.79771 13.5795 7.66275 13.95C7.52778 14.3204 7.47233 14.7151 7.49999 15.1084V18.3334" stroke="#F8F8F8" stroke-linecap="round" stroke-linejoin="round"/>
</g>
</svg>
