<svg width="24" height="30" viewBox="0 0 24 30" fill="none" xmlns="http://www.w3.org/2000/svg">
<g id="5151e0c8492e5103c096af88a51e8d81">
<path id="Vector" d="M8.36235 12.2091C8.08526 11.5965 7.96104 10.8819 8.17274 10.2327C8.38438 9.569 8.85847 9.03662 9.33255 8.54062C10.6524 7.22045 12.2789 6.25049 13.5698 4.90863C14.2845 4.17193 14.8752 3.28945 15.0793 2.27561C15.2471 1.53176 15.167 0.765996 15.0139 0.0292969C15.6994 0.809707 15.9255 1.92557 15.7285 2.93209C15.5171 4.06248 14.8897 5.06162 14.1532 5.92219C13.5625 6.61518 12.8841 7.22777 12.1767 7.79678C11.3526 8.46047 10.5432 9.17514 10.0254 10.1087C9.58761 10.8671 9.48548 11.8007 9.7846 12.6248C10.2733 14.0396 11.4109 15.0899 12.031 16.4245C11.3452 15.8191 10.6744 15.192 10.047 14.5284C9.39085 13.8282 8.77081 13.0844 8.36235 12.2091ZM12.0819 11.1005C11.958 12.2602 12.5631 13.3541 13.2853 14.2148C13.6353 14.6013 13.9343 15.0753 13.9488 15.6151C13.9635 16.3369 13.5553 17.0081 13.0298 17.482C13.154 17.4676 13.2415 17.358 13.3436 17.2997C14.1313 16.7965 14.8896 16.162 15.2761 15.2943C15.5314 14.7035 15.4731 14.0032 15.1377 13.4561C14.7437 12.8143 14.2261 12.2454 13.9198 11.5454C13.7518 11.1516 13.6935 10.6921 13.8321 10.2764C14.0146 9.7149 14.4083 9.25535 14.8241 8.85422C15.9691 7.76766 17.3547 6.99428 18.6822 6.14842C17.0047 6.62971 15.3492 7.29346 13.9343 8.33648C13.0372 9.00744 12.2059 9.9409 12.0819 11.1005ZM20.0535 16.5851C20.8485 16.6289 21.6286 17.2123 21.7746 18.0146C21.9133 18.7075 21.5779 19.3929 21.1474 19.918C20.4399 20.764 19.4844 21.3694 18.522 21.8873C18.4269 21.9454 18.3468 22.0184 18.2738 22.0987C19.5429 21.7777 20.8118 21.2966 21.8403 20.4724C22.4089 19.9983 22.9122 19.3709 23.0217 18.6197C23.1238 17.9707 22.8541 17.2997 22.3726 16.8694C21.7891 16.3368 20.9652 16.1401 20.1919 16.2422C19.747 16.3005 19.2584 16.3953 18.9522 16.7673C19.317 16.6946 19.674 16.5486 20.0535 16.5851ZM4.21989 18.6707C5.17515 18.926 6.15981 18.999 7.1371 19.0647C8.01226 19.123 8.88759 19.1377 9.77013 19.1303C12.0455 19.0941 14.3355 18.9407 16.5672 18.4448C16.7786 18.3939 17.0121 18.3574 17.2019 18.2261C17.5738 17.9853 17.982 17.7956 18.3833 17.606C16.5672 17.8978 14.7439 18.146 12.9061 18.2626C11.0463 18.3792 9.17183 18.4522 7.30491 18.3282C6.77253 18.2773 6.22544 18.2479 5.72956 18.0436C5.61272 17.9926 5.45224 17.8907 5.51054 17.7373C5.62005 17.5404 5.83884 17.4457 6.02845 17.3436C6.83083 16.9643 7.70593 16.7529 8.55929 16.5049C7.09321 16.4829 5.63452 16.8548 4.29284 17.4311C3.99372 17.577 3.65827 17.6936 3.41769 17.9416C3.32265 18.0435 3.32265 18.2189 3.43216 18.3062C3.65101 18.5031 3.94257 18.5906 4.21989 18.6707ZM16.035 20.6766C14.7586 20.9027 13.4748 21.1144 12.1838 21.1798C10.769 21.2746 9.35411 21.1943 7.9539 21.0485C7.68413 21.012 7.41419 20.9684 7.1736 20.8444C7.04962 20.7714 6.92569 20.6548 6.93302 20.5014C6.94749 20.2608 7.15157 20.0932 7.29759 19.9181C6.84554 20.0786 6.39325 20.2461 6.01403 20.5455C5.85337 20.6695 5.69306 20.8662 5.73671 21.085C5.80263 21.3403 6.05054 21.4934 6.26933 21.61C6.80886 21.8873 7.41425 22.0112 8.00517 22.1206C9.49995 22.3614 11.0243 22.3687 12.5267 22.2664C14.117 22.1425 15.6994 21.88 17.2383 21.4277C16.8007 21.231 16.3849 21.0046 16.035 20.6766ZM8.01958 23.2003C7.61118 23.3169 7.1954 23.4555 6.86001 23.7251C6.69196 23.8564 6.56089 24.0827 6.64122 24.2942C6.74335 24.564 6.99864 24.7247 7.23905 24.8629C7.86647 25.2059 8.57382 25.3661 9.26663 25.4903C10.8349 25.7381 12.4465 25.7017 14.0073 25.4246C14.9335 25.2495 15.8598 25.0015 16.7203 24.6152C16.1587 24.3817 15.6119 24.1191 15.0868 23.8129C14.1751 23.9733 13.256 24.1412 12.3225 24.1995C11.0901 24.2943 9.84284 24.1921 8.61026 24.039C8.31847 23.9733 7.9539 23.9442 7.75696 23.6889C7.65507 23.4772 7.88833 23.324 8.01958 23.2003ZM17.9967 27.8896C19.0177 27.6784 20.0462 27.4373 20.9796 26.9634C21.2712 26.7954 21.6286 26.6131 21.7237 26.2632C21.7746 25.9278 21.4245 25.7527 21.1766 25.614C21.3297 25.7894 21.4318 26.0445 21.2785 26.2486C21.0232 26.5915 20.5859 26.7227 20.1992 26.854C18.9887 27.1968 17.7341 27.3354 16.487 27.474C13.1832 27.773 9.85737 27.846 6.55374 27.5688C5.44515 27.452 4.31446 27.3281 3.25702 26.9343C3.08944 26.8613 2.83415 26.7883 2.83415 26.5621C2.8996 26.3656 3.08944 26.2559 3.25702 26.1611C4.01552 25.7746 4.86155 25.563 5.70753 25.512C5.45979 25.3661 5.168 25.3516 4.88358 25.3589C4.17601 25.3808 3.48319 25.563 2.81235 25.7894C2.23614 26.0006 1.6454 26.2341 1.18579 26.6572C1.00351 26.8175 0.835927 27.1237 1.0253 27.3427C1.3171 27.6564 1.76938 27.7365 2.17022 27.8313C4.41659 28.2179 6.69196 28.4364 8.96774 28.5168C11.9871 28.6045 15.0283 28.4732 17.9967 27.8896ZM20.987 28.2836C19.6157 28.7211 18.1937 28.9617 16.7786 29.1587C14.3355 29.465 11.8703 29.5598 9.41247 29.487C7.91745 29.4287 6.42243 29.3266 4.94903 29.0784C5.29181 29.3118 5.71491 29.3846 6.10884 29.4942C7.76452 29.8443 9.46362 29.9099 11.1485 29.9609C13.6206 30.0047 16.093 29.9099 18.5291 29.5233C19.6816 29.3194 20.8411 29.0713 21.8765 28.5315C22.4165 28.2471 22.9636 27.8093 23.058 27.175C22.5112 27.7583 21.7237 28.0283 20.987 28.2836Z" fill="#F8F8F8"/>
</g>
</svg>
