<svg width="30" height="30" viewBox="0 0 30 30" fill="none" xmlns="http://www.w3.org/2000/svg">
<g id="javascript-svgrepo-com 1">
<path id="Vector" d="M17 14.0625C17 12.8544 17.9794 11.875 19.1875 11.875H21.0625C21.5802 11.875 22 12.2947 22 12.8125C22 13.3302 21.5802 13.75 21.0625 13.75H19.1875C19.0149 13.75 18.875 13.8899 18.875 14.0625V15.9375C18.875 16.1101 19.0149 16.25 19.1875 16.25H19.8125C21.0206 16.25 22 17.2294 22 18.4375V20.3125C22 21.5206 21.0206 22.5 19.8125 22.5H17.9375C17.4197 22.5 17 22.0802 17 21.5625C17 21.0447 17.4197 20.625 17.9375 20.625H19.8125C19.9851 20.625 20.125 20.4851 20.125 20.3125V18.4375C20.125 18.2649 19.9851 18.125 19.8125 18.125H19.1875C17.9794 18.125 17 17.1456 17 15.9375V14.0625Z" fill="#F8F8F8"/>
<path id="Vector_2" d="M15.9375 12.8125C15.9375 12.2947 15.5177 11.875 15 11.875C14.4822 11.875 14.0625 12.2947 14.0625 12.8125V20.3125C14.0625 20.4851 13.9226 20.625 13.75 20.625H12.1875C11.6697 20.625 11.25 21.0447 11.25 21.5625C11.25 22.0802 11.6697 22.5 12.1875 22.5H13.75C14.9581 22.5 15.9375 21.5206 15.9375 20.3125V12.8125Z" fill="#F8F8F8"/>
<path id="Vector_3" d="M5 7.8125C5 5.56884 6.81884 3.75 9.0625 3.75H23.4375C25.6811 3.75 27.5 5.56884 27.5 7.8125V22.1875C27.5 24.4311 25.6811 26.25 23.4375 26.25H9.0625C6.81884 26.25 5 24.4311 5 22.1875V7.8125ZM9.0625 5.625C7.85438 5.625 6.875 6.60438 6.875 7.8125V22.1875C6.875 23.3956 7.85438 24.375 9.0625 24.375H23.4375C24.6456 24.375 25.625 23.3956 25.625 22.1875V7.8125C25.625 6.60438 24.6456 5.625 23.4375 5.625H9.0625Z" fill="#F8F8F8"/>
</g>
</svg>
