<svg width="30" height="30" viewBox="0 0 30 30" fill="none" xmlns="http://www.w3.org/2000/svg">
<g id="Group">
<path id="Vector" d="M29.5291 6.77495C29.5399 6.81488 29.5455 6.85604 29.5455 6.8974V13.3256C29.5455 13.4935 29.4557 13.6486 29.31 13.7322L23.9147 16.8385V22.9954C23.9147 23.163 23.8256 23.3176 23.6803 23.402L12.4181 29.8853C12.3923 29.8999 12.3642 29.9093 12.3361 29.9193C12.3255 29.9228 12.3156 29.9292 12.3044 29.9321C12.2257 29.9529 12.143 29.9529 12.0642 29.9321C12.0513 29.9286 12.0396 29.9216 12.0273 29.9169C12.0015 29.9075 11.9746 29.8993 11.95 29.8853L0.690111 23.402C0.544518 23.3184 0.45459 23.1633 0.45459 22.9954V3.71084C0.45459 3.66866 0.460449 3.62765 0.470994 3.58781C0.47451 3.57433 0.482712 3.56203 0.487399 3.54855C0.496187 3.52395 0.504389 3.49875 0.517278 3.47591C0.526066 3.46067 0.538955 3.44837 0.549501 3.43431C0.562976 3.41556 0.57528 3.39623 0.591098 3.37982C0.604573 3.36635 0.622149 3.35639 0.637382 3.34467C0.654372 3.33061 0.669605 3.31538 0.688939 3.30424H0.689525L6.31976 0.0626129C6.46484 -0.020871 6.64338 -0.020871 6.78846 0.0626129L12.4187 3.30424H12.4199C12.4386 3.31596 12.4544 3.33061 12.4714 3.34408C12.4867 3.3558 12.5036 3.36635 12.5171 3.37924C12.5335 3.39623 12.5452 3.41556 12.5593 3.43431C12.5693 3.44837 12.5827 3.46067 12.5909 3.47591C12.6044 3.49934 12.612 3.52395 12.6214 3.54855C12.6261 3.56203 12.6343 3.57433 12.6378 3.58839C12.6486 3.62832 12.6541 3.66948 12.6542 3.71084V15.7558L17.3459 13.0543V6.89681C17.3459 6.8558 17.3517 6.81421 17.3623 6.77495C17.3664 6.76089 17.374 6.74859 17.3787 6.73511C17.3881 6.71051 17.3963 6.68531 17.4092 6.66247C17.4179 6.64723 17.4308 6.63493 17.4408 6.62087C17.4548 6.60212 17.4666 6.58279 17.483 6.56638C17.4964 6.55291 17.5134 6.54295 17.5287 6.53123C17.5462 6.51717 17.5615 6.50194 17.5802 6.4908H17.5808L23.2116 3.24917C23.3567 3.16557 23.5353 3.16557 23.6803 3.24917L29.3106 6.4908C29.3305 6.50252 29.3457 6.51717 29.3633 6.53064C29.3779 6.54236 29.3949 6.55291 29.4084 6.5658C29.4248 6.58279 29.4365 6.60212 29.4506 6.62087C29.4611 6.63493 29.474 6.64723 29.4822 6.66247C29.4957 6.68531 29.5033 6.71051 29.5127 6.73511C29.518 6.74859 29.5256 6.76089 29.5291 6.77495ZM28.6069 13.0543V7.70883L26.6366 8.84308L23.9147 10.4103V15.7558L28.6075 13.0543H28.6069ZM22.9767 22.7242V17.3751L20.2993 18.9043L12.6536 23.2678V28.6672L22.9767 22.7242ZM1.39316 4.52227V22.7242L11.7151 28.6667V23.2684L6.32269 20.2166L6.32093 20.2155L6.31859 20.2143C6.30042 20.2037 6.28519 20.1885 6.2682 20.1756C6.25355 20.1639 6.23656 20.1545 6.22368 20.1416L6.2225 20.1399C6.20727 20.1252 6.19673 20.1071 6.18384 20.0907C6.17212 20.0748 6.15806 20.0614 6.14868 20.045L6.1481 20.0432C6.13755 20.0256 6.13111 20.0045 6.12349 19.9846C6.11587 19.967 6.10592 19.9506 6.10123 19.9319V19.9313C6.09537 19.909 6.0942 19.8856 6.09185 19.8628C6.08951 19.8452 6.08482 19.8276 6.08482 19.81V19.8089V7.22373L3.36345 5.65594L1.39316 4.52286V4.52227ZM6.55469 1.01055L1.86361 3.71084L6.55352 6.41113L11.244 3.71025L6.55352 1.01055H6.55469ZM8.99427 17.8626L11.7156 16.296V4.52227L9.74535 5.65652L7.02339 7.22373V18.9974L8.99427 17.8626ZM23.446 4.19711L18.7555 6.8974L23.446 9.59769L28.1359 6.89681L23.446 4.19711ZM22.9767 10.4103L20.2547 8.84308L18.2844 7.70883V13.0543L21.0058 14.621L22.9767 15.7558V10.4103ZM12.1838 22.4564L19.0637 18.5287L22.5027 16.5661L17.8157 13.8675L12.4193 16.9744L7.50088 19.8059L12.1838 22.4564Z" fill="#F8F8F8"/>
</g>
</svg>
