<svg width="20" height="20" viewBox="0 0 20 20" fill="none" xmlns="http://www.w3.org/2000/svg">
<g id="Linkedin">
<g id="Icon">
<path d="M13.3333 6.6665C14.6594 6.6665 15.9312 7.19329 16.8689 8.13097C17.8065 9.06865 18.3333 10.3404 18.3333 11.6665V17.4998H15V11.6665C15 11.2245 14.8244 10.8006 14.5118 10.488C14.1993 10.1754 13.7754 9.99984 13.3333 9.99984C12.8913 9.99984 12.4674 10.1754 12.1548 10.488C11.8423 10.8006 11.6667 11.2245 11.6667 11.6665V17.4998H8.33332V11.6665C8.33332 10.3404 8.86011 9.06865 9.79779 8.13097C10.7355 7.19329 12.0072 6.6665 13.3333 6.6665Z" stroke="#F8F8F8" stroke-linecap="round" stroke-linejoin="round"/>
<path d="M4.99999 7.49984H1.66666V17.4998H4.99999V7.49984Z" stroke="#F8F8F8" stroke-linecap="round" stroke-linejoin="round"/>
<path d="M3.33332 4.99984C4.2538 4.99984 4.99999 4.25365 4.99999 3.33317C4.99999 2.4127 4.2538 1.6665 3.33332 1.6665C2.41285 1.6665 1.66666 2.4127 1.66666 3.33317C1.66666 4.25365 2.41285 4.99984 3.33332 4.99984Z" stroke="#F8F8F8" stroke-linecap="round" stroke-linejoin="round"/>
</g>
</g>
</svg>
