<svg width="21" height="20" viewBox="0 0 21 20" fill="none" xmlns="http://www.w3.org/2000/svg">
<g id="mdi:github">
<path id="Vector" d="M10.5 1.66663C9.40567 1.66663 8.32204 1.88217 7.31099 2.30096C6.29994 2.71975 5.38128 3.33358 4.60746 4.1074C3.04466 5.67021 2.16669 7.78982 2.16669 9.99996C2.16669 13.6833 4.55835 16.8083 7.86669 17.9166C8.28335 17.9833 8.41669 17.725 8.41669 17.5V16.0916C6.10835 16.5916 5.61669 14.975 5.61669 14.975C5.23335 14.0083 4.69169 13.75 4.69169 13.75C3.93335 13.2333 4.75002 13.25 4.75002 13.25C5.58335 13.3083 6.02502 14.1083 6.02502 14.1083C6.75002 15.375 7.97502 15 8.45002 14.8C8.52502 14.2583 8.74169 13.8916 8.97502 13.6833C7.12502 13.475 5.18335 12.7583 5.18335 9.58329C5.18335 8.65829 5.50002 7.91663 6.04169 7.32496C5.95835 7.11663 5.66669 6.24996 6.12502 5.12496C6.12502 5.12496 6.82502 4.89996 8.41669 5.97496C9.07502 5.79163 9.79169 5.69996 10.5 5.69996C11.2084 5.69996 11.925 5.79163 12.5834 5.97496C14.175 4.89996 14.875 5.12496 14.875 5.12496C15.3334 6.24996 15.0417 7.11663 14.9584 7.32496C15.5 7.91663 15.8167 8.65829 15.8167 9.58329C15.8167 12.7666 13.8667 13.4666 12.0084 13.675C12.3084 13.9333 12.5834 14.4416 12.5834 15.2166V17.5C12.5834 17.725 12.7167 17.9916 13.1417 17.9166C16.45 16.8 18.8334 13.6833 18.8334 9.99996C18.8334 8.90561 18.6178 7.82198 18.199 6.81093C17.7802 5.79988 17.1664 4.88122 16.3926 4.1074C15.6188 3.33358 14.7001 2.71975 13.689 2.30096C12.678 1.88217 11.5944 1.66663 10.5 1.66663Z" fill="#B8B8B8"/>
</g>
</svg>
