<svg width="15" height="16" viewBox="0 0 15 16" fill="none" xmlns="http://www.w3.org/2000/svg">
<path d="M7.5 8.625C7.84518 8.625 8.125 8.34518 8.125 8C8.125 7.65482 7.84518 7.375 7.5 7.375C7.15482 7.375 6.875 7.65482 6.875 8C6.875 8.34518 7.15482 8.625 7.5 8.625Z" stroke="#E6E6E6" stroke-width="1.5" stroke-linecap="round" stroke-linejoin="round"/>
<path d="M11.875 8.625C12.2202 8.625 12.5 8.34518 12.5 8C12.5 7.65482 12.2202 7.375 11.875 7.375C11.5298 7.375 11.25 7.65482 11.25 8C11.25 8.34518 11.5298 8.625 11.875 8.625Z" stroke="#E6E6E6" stroke-width="1.5" stroke-linecap="round" stroke-linejoin="round"/>
<path d="M3.125 8.625C3.47018 8.625 3.75 8.34518 3.75 8C3.75 7.65482 3.47018 7.375 3.125 7.375C2.77982 7.375 2.5 7.65482 2.5 8C2.5 8.34518 2.77982 8.625 3.125 8.625Z" stroke="#E6E6E6" stroke-width="1.5" stroke-linecap="round" stroke-linejoin="round"/>
</svg>
