<svg width="15" height="16" viewBox="0 0 15 16" fill="none" xmlns="http://www.w3.org/2000/svg">
<g id="More vertical">
<g id="Icon">
<path d="M7.5 8.625C7.84518 8.625 8.125 8.34518 8.125 8C8.125 7.65482 7.84518 7.375 7.5 7.375C7.15482 7.375 6.875 7.65482 6.875 8C6.875 8.34518 7.15482 8.625 7.5 8.625Z" stroke="#E6E6E6" stroke-linecap="round" stroke-linejoin="round"/>
<path d="M7.5 4.25C7.84518 4.25 8.125 3.97018 8.125 3.625C8.125 3.27982 7.84518 3 7.5 3C7.15482 3 6.875 3.27982 6.875 3.625C6.875 3.97018 7.15482 4.25 7.5 4.25Z" stroke="#E6E6E6" stroke-linecap="round" stroke-linejoin="round"/>
<path d="M7.5 13C7.84518 13 8.125 12.7202 8.125 12.375C8.125 12.0298 7.84518 11.75 7.5 11.75C7.15482 11.75 6.875 12.0298 6.875 12.375C6.875 12.7202 7.15482 13 7.5 13Z" stroke="#E6E6E6" stroke-linecap="round" stroke-linejoin="round"/>
</g>
</g>
</svg>
