<?xml version="1.0" encoding="UTF-8"?><svg id="Layer_1" xmlns="http://www.w3.org/2000/svg" viewBox="0 0 228 120"><defs><style>.cls-1{fill:#ea4b71;fill-rule:evenodd;}</style></defs><path class="cls-1" d="M204,48c-11.18,0-20.58-7.65-23.24-18h-27.51c-5.87,0-10.87,4.24-11.84,10.03l-.99,5.92c-.94,5.62-3.78,10.51-7.8,14.05,4.02,3.54,6.86,8.44,7.8,14.05l.99,5.92c.96,5.79,5.97,10.03,11.84,10.03h3.51c2.66-10.35,12.06-18,23.24-18,13.26,0,24,10.75,24,24s-10.74,24-24,24c-11.18,0-20.58-7.65-23.24-18h-3.51c-11.73,0-21.74-8.48-23.67-20.05l-.99-5.92c-.96-5.79-5.97-10.03-11.84-10.03h-9.51c-2.66,10.35-12.06,18-23.24,18s-20.58-7.65-23.24-18h-13.51c-2.66,10.35-12.06,18-23.24,18-13.25,0-24-10.75-24-24s10.75-24,24-24c11.18,0,20.58,7.65,23.24,18h13.51c2.66-10.35,12.06-18,23.24-18s20.58,7.65,23.24,18h9.51c5.87,0,10.87-4.24,11.84-10.03l.99-5.92c1.93-11.57,11.94-20.05,23.67-20.05h27.51c2.66-10.35,12.06-18,23.24-18,13.26,0,24,10.75,24,24s-10.74,24-24,24ZM204,36c6.63,0,12-5.37,12-12s-5.37-12-12-12-12,5.37-12,12,5.37,12,12,12ZM24,72c6.63,0,12-5.37,12-12s-5.37-12-12-12-12,5.37-12,12,5.37,12,12,12ZM96,60c0,6.63-5.37,12-12,12s-12-5.37-12-12,5.37-12,12-12,12,5.37,12,12ZM192,96c0,6.63-5.37,12-12,12s-12-5.37-12-12,5.37-12,12-12,12,5.37,12,12Z"/></svg>