<svg width="30" height="30" viewBox="0 0 30 30" fill="none" xmlns="http://www.w3.org/2000/svg">
<g id="nextjs-svgrepo-com 1" clip-path="url(#clip0_475_3247)">
<path id="Vector" d="M9 9L9.81068 8.4145C9.55672 8.06288 9.10504 7.91506 8.69234 8.0485C8.27962 8.18196 8 8.56626 8 9H9ZM15 28C7.8203 28 2 22.1798 2 15H0C0 23.2842 6.71572 30 15 30V28ZM28 15C28 22.1798 22.1798 28 15 28V30C23.2842 30 30 23.2842 30 15H28ZM15 2C22.1798 2 28 7.8203 28 15H30C30 6.71572 23.2842 0 15 0V2ZM15 0C6.71572 0 0 6.71572 0 15H2C2 7.8203 7.8203 2 15 2V0ZM10 24V9H8V24H10ZM8.18932 9.5855L21.1894 27.5854L22.8106 26.4146L9.81068 8.4145L8.18932 9.5855ZM20 8V20H22V8H20Z" fill="#F8F8F8"/>
</g>
<defs>
<clipPath id="clip0_475_3247">
<rect width="30" height="30" fill="white"/>
</clipPath>
</defs>
</svg>
