<svg width="30" height="30" viewBox="0 0 30 30" fill="none" xmlns="http://www.w3.org/2000/svg">
<g id="node-16-svgrepo-com 1" clip-path="url(#clip0_475_3375)">
<path id="Vector" d="M14.2245 0.191561C14.6623 -0.0638537 15.2038 -0.0638537 15.6416 0.191561L27.2934 6.98844C27.7254 7.24044 27.9911 7.70297 27.9911 8.20312V21.7969C27.9911 22.2971 27.7254 22.7595 27.2934 23.0115L15.6416 29.8084C15.2038 30.0639 14.6623 30.0639 14.2245 29.8084L11.3115 28.1092C10.6407 27.7179 10.4141 26.8568 10.8054 26.1859C11.1967 25.5152 12.0578 25.2885 12.7287 25.6798L14.933 26.9657L25.1786 20.9891V9.01084L14.933 3.03428L4.6875 9.01084V20.9891L6.7815 22.2107C7.42684 22.4177 8.22396 22.4683 8.7858 22.2201C9.04644 22.1049 9.28183 21.9174 9.46815 21.5826C9.66424 21.2301 9.84375 20.6434 9.84375 19.6875V9.84375C9.84375 9.06711 10.4734 8.4375 11.25 8.4375C12.0266 8.4375 12.6562 9.06711 12.6562 9.84375V19.6875C12.6562 20.9816 12.4144 22.0717 11.9259 22.9498C11.4276 23.8455 10.715 24.4425 9.92235 24.7928C8.41054 25.4606 6.74106 25.1869 5.71873 24.8196C5.63786 24.7905 5.55984 24.7541 5.48563 24.7108L2.57269 23.0115C2.14065 22.7595 1.875 22.2971 1.875 21.7969V8.20312C1.875 7.70297 2.14065 7.24044 2.57269 6.98844L14.2245 0.191561ZM15.4623 9.90606C16.2064 9.02027 17.3685 8.4375 18.9454 8.4375C20.4088 8.4375 21.5235 8.93917 22.2778 9.73714C22.8113 10.3016 22.7863 11.1916 22.2218 11.7251C21.6574 12.2586 20.7673 12.2335 20.2339 11.6691C20.0696 11.4954 19.7254 11.25 18.9454 11.25C18.1159 11.25 17.7741 11.5266 17.6158 11.715C17.4115 11.9583 17.3438 12.266 17.3438 12.4219C17.3438 12.5778 17.4115 12.8855 17.6158 13.1287C17.7741 13.3171 18.1159 13.5938 18.9454 13.5938C19.0841 13.5938 19.2182 13.6139 19.3449 13.6514C20.5065 13.8188 21.3917 14.3397 21.9986 15.0623C22.6967 15.8933 22.9298 16.8747 22.9298 17.5781C22.9298 18.2816 22.6967 19.263 21.9986 20.094C21.2546 20.9797 20.0925 21.5625 18.5156 21.5625C17.0522 21.5625 15.9374 21.0608 15.1832 20.2629C14.6497 19.6984 14.6747 18.8083 15.2392 18.2749C15.8036 17.7414 16.6936 17.7665 17.2271 18.3309C17.3913 18.5046 17.7356 18.75 18.5156 18.75C19.3451 18.75 19.6869 18.4734 19.8452 18.285C20.0494 18.0417 20.1173 17.7341 20.1173 17.5781C20.1173 17.4222 20.0494 17.1145 19.8452 16.8713C19.6869 16.6829 19.3451 16.4062 18.5156 16.4062C18.3768 16.4062 18.2427 16.3861 18.116 16.3486C16.9544 16.1812 16.0693 15.6603 15.4623 14.9377C14.7643 14.1067 14.5312 13.1253 14.5312 12.4219C14.5312 11.7184 14.7643 10.7371 15.4623 9.90606Z" fill="#F8F8F8"/>
</g>
<defs>
<clipPath id="clip0_475_3375">
<rect width="30" height="30" fill="white"/>
</clipPath>
</defs>
</svg>
