<svg width="16" height="16" viewBox="0 0 16 16" fill="none" xmlns="http://www.w3.org/2000/svg">
<g id="Bell">
<path id="Icon" d="M9.08125 13.625C8.97137 13.8144 8.81365 13.9717 8.62389 14.081C8.43413 14.1903 8.21899 14.2478 8 14.2478C7.78101 14.2478 7.56587 14.1903 7.37611 14.081C7.18635 13.9717 7.02863 13.8144 6.91875 13.625M11.75 5.5C11.75 4.50544 11.3549 3.55161 10.6517 2.84835C9.94839 2.14509 8.99456 1.75 8 1.75C7.00544 1.75 6.05161 2.14509 5.34835 2.84835C4.64509 3.55161 4.25 4.50544 4.25 5.5C4.25 9.875 2.375 11.125 2.375 11.125H13.625C13.625 11.125 11.75 9.875 11.75 5.5Z" stroke="#E6E6E6" stroke-width="1.5" stroke-linecap="round" stroke-linejoin="round"/>
</g>
</svg>
