<svg width="12" height="16" viewBox="0 0 12 16" fill="none" xmlns="http://www.w3.org/2000/svg">
<g id="inner">
<rect id="Rectangle 402" y="2.8" width="2.4" height="2.4" transform="rotate(-90 0 2.8)" fill="#DD9A38"/>
<rect id="Rectangle 403" opacity="0.1" x="3.2" y="2.8" width="2.4" height="2.4" transform="rotate(-90 3.2 2.8)" fill="#DD9A38"/>
<rect id="Rectangle 404" opacity="0.4" x="6.4" y="2.8" width="2.4" height="2.4" transform="rotate(-90 6.4 2.8)" fill="#DD9A38"/>
<rect id="Rectangle 405" x="9.6" y="2.8" width="2.4" height="2.4" transform="rotate(-90 9.6 2.8)" fill="#DD9A38"/>
<rect id="Rectangle 408" y="6" width="2.4" height="2.4" transform="rotate(-90 0 6)" fill="#DD9A38"/>
<rect id="Rectangle 409" opacity="0.1" x="3.2" y="6" width="2.4" height="2.4" transform="rotate(-90 3.2 6)" fill="#DD9A38"/>
<rect id="Rectangle 410" opacity="0.4" x="6.4" y="6" width="2.4" height="2.4" transform="rotate(-90 6.4 6)" fill="#DD9A38"/>
<rect id="Rectangle 411" x="9.6" y="6" width="2.4" height="2.4" transform="rotate(-90 9.6 6)" fill="#DD9A38"/>
<rect id="Rectangle 414" opacity="0.1" y="9.2" width="2.4" height="2.4" transform="rotate(-90 0 9.2)" fill="#DD9A38"/>
<rect id="Rectangle 415" x="3.2" y="9.2" width="2.4" height="2.4" transform="rotate(-90 3.2 9.2)" fill="#DD9A38"/>
<rect id="Rectangle 416" x="6.4" y="9.2" width="2.4" height="2.4" transform="rotate(-90 6.4 9.2)" fill="#DD9A38"/>
<rect id="Rectangle 417" x="9.6" y="9.2" width="2.4" height="2.4" transform="rotate(-90 9.6 9.2)" fill="#DD9A38"/>
<rect id="Rectangle 427" opacity="0.1" x="3.2" y="12.4" width="2.4" height="2.4" transform="rotate(-90 3.2 12.4)" fill="#DD9A38"/>
<rect id="Rectangle 428" opacity="0.4" x="6.4" y="12.4" width="2.4" height="2.4" transform="rotate(-90 6.4 12.4)" fill="#DD9A38"/>
<rect id="Rectangle 429" x="9.6" y="12.4" width="2.4" height="2.4" transform="rotate(-90 9.6 12.4)" fill="#DD9A38"/>
<rect id="Rectangle 432" opacity="0.1" y="15.6" width="2.4" height="2.4" transform="rotate(-90 0 15.6)" fill="#DD9A38"/>
<rect id="Rectangle 433" x="3.2" y="15.6" width="2.4" height="2.4" transform="rotate(-90 3.2 15.6)" fill="#DD9A38"/>
<rect id="Rectangle 434" x="6.4" y="15.6" width="2.4" height="2.4" transform="rotate(-90 6.4 15.6)" fill="#DD9A38"/>
</g>
</svg>
