<svg width="15" height="16" viewBox="0 0 15 16" fill="none" xmlns="http://www.w3.org/2000/svg">
<g id="Settings" clip-path="url(#clip0_1524_5249)">
<g id="Icon">
<path d="M7.5 9.875C8.53553 9.875 9.375 9.03553 9.375 8C9.375 6.96447 8.53553 6.125 7.5 6.125C6.46447 6.125 5.625 6.96447 5.625 8C5.625 9.03553 6.46447 9.875 7.5 9.875Z" stroke="#E6E6E6" stroke-linecap="round" stroke-linejoin="round"/>
<path d="M12.125 9.875C12.0418 10.0635 12.017 10.2726 12.0537 10.4754C12.0905 10.6781 12.1872 10.8652 12.3312 11.0125L12.3688 11.05C12.485 11.1661 12.5772 11.304 12.6401 11.4557C12.703 11.6074 12.7354 11.7701 12.7354 11.9344C12.7354 12.0986 12.703 12.2613 12.6401 12.4131C12.5772 12.5648 12.485 12.7027 12.3688 12.8187C12.2527 12.935 12.1148 13.0272 11.9631 13.0901C11.8113 13.153 11.6486 13.1854 11.4844 13.1854C11.3201 13.1854 11.1574 13.153 11.0057 13.0901C10.854 13.0272 10.7161 12.935 10.6 12.8187L10.5625 12.7812C10.4152 12.6372 10.2281 12.5405 10.0254 12.5037C9.82262 12.467 9.61351 12.4918 9.425 12.575C9.24014 12.6542 9.08249 12.7858 8.97144 12.9535C8.86039 13.1211 8.8008 13.3176 8.8 13.5187V13.625C8.8 13.9565 8.6683 14.2745 8.43388 14.5089C8.19946 14.7433 7.88152 14.875 7.55 14.875C7.21848 14.875 6.90054 14.7433 6.66612 14.5089C6.4317 14.2745 6.3 13.9565 6.3 13.625V13.5687C6.29516 13.3619 6.2282 13.1612 6.10782 12.9929C5.98744 12.8246 5.81921 12.6964 5.625 12.625C5.43649 12.5418 5.22738 12.517 5.02463 12.5537C4.82189 12.5905 4.6348 12.6872 4.4875 12.8312L4.45 12.8688C4.33391 12.985 4.19605 13.0772 4.0443 13.1401C3.89255 13.203 3.72989 13.2354 3.56562 13.2354C3.40136 13.2354 3.2387 13.203 3.08695 13.1401C2.9352 13.0772 2.79734 12.985 2.68125 12.8688C2.56503 12.7527 2.47283 12.6148 2.40993 12.4631C2.34702 12.3113 2.31464 12.1486 2.31464 11.9844C2.31464 11.8201 2.34702 11.6574 2.40993 11.5057C2.47283 11.354 2.56503 11.2161 2.68125 11.1L2.71875 11.0625C2.86284 10.9152 2.95949 10.7281 2.99625 10.5254C3.03301 10.3226 3.0082 10.1135 2.925 9.925C2.84577 9.74014 2.71422 9.58249 2.54654 9.47144C2.37886 9.36039 2.18237 9.3008 1.98125 9.3H1.875C1.54348 9.3 1.22554 9.1683 0.991117 8.93388C0.756696 8.69946 0.625 8.38152 0.625 8.05C0.625 7.71848 0.756696 7.40054 0.991117 7.16612C1.22554 6.9317 1.54348 6.8 1.875 6.8H1.93125C2.13812 6.79516 2.33875 6.7282 2.50706 6.60782C2.67537 6.48744 2.80357 6.31921 2.875 6.125C2.9582 5.93649 2.98301 5.72738 2.94625 5.52463C2.90949 5.32189 2.81284 5.1348 2.66875 4.9875L2.63125 4.95C2.51503 4.83391 2.42283 4.69605 2.35993 4.5443C2.29702 4.39255 2.26464 4.22989 2.26464 4.06562C2.26464 3.90136 2.29702 3.7387 2.35993 3.58695C2.42283 3.4352 2.51503 3.29734 2.63125 3.18125C2.74734 3.06503 2.8852 2.97283 3.03695 2.90993C3.1887 2.84702 3.35136 2.81464 3.51562 2.81464C3.67989 2.81464 3.84255 2.84702 3.9943 2.90993C4.14605 2.97283 4.28391 3.06503 4.4 3.18125L4.4375 3.21875C4.5848 3.36284 4.77188 3.45949 4.97463 3.49625C5.17738 3.53301 5.38649 3.5082 5.575 3.425H5.625C5.80986 3.34577 5.96751 3.21422 6.07856 3.04654C6.18961 2.87886 6.2492 2.68237 6.25 2.48125V2.375C6.25 2.04348 6.3817 1.72554 6.61612 1.49112C6.85054 1.2567 7.16848 1.125 7.5 1.125C7.83152 1.125 8.14946 1.2567 8.38388 1.49112C8.6183 1.72554 8.75 2.04348 8.75 2.375V2.43125C8.7508 2.63237 8.81039 2.82886 8.92144 2.99654C9.03249 3.16422 9.19014 3.29577 9.375 3.375C9.56351 3.4582 9.77262 3.48301 9.97537 3.44625C10.1781 3.40949 10.3652 3.31284 10.5125 3.16875L10.55 3.13125C10.6661 3.01503 10.804 2.92283 10.9557 2.85993C11.1074 2.79702 11.2701 2.76464 11.4344 2.76464C11.5986 2.76464 11.7613 2.79702 11.9131 2.85993C12.0648 2.92283 12.2027 3.01503 12.3187 3.13125C12.435 3.24734 12.5272 3.3852 12.5901 3.53695C12.653 3.6887 12.6854 3.85136 12.6854 4.01562C12.6854 4.17989 12.653 4.34255 12.5901 4.4943C12.5272 4.64605 12.435 4.78391 12.3187 4.9L12.2812 4.9375C12.1372 5.0848 12.0405 5.27188 12.0037 5.47463C11.967 5.67738 11.9918 5.88649 12.075 6.075V6.125C12.1542 6.30986 12.2858 6.46751 12.4535 6.57856C12.6211 6.68961 12.8176 6.7492 13.0187 6.75H13.125C13.4565 6.75 13.7745 6.8817 14.0089 7.11612C14.2433 7.35054 14.375 7.66848 14.375 8C14.375 8.33152 14.2433 8.64946 14.0089 8.88388C13.7745 9.1183 13.4565 9.25 13.125 9.25H13.0687C12.8676 9.2508 12.6711 9.31039 12.5035 9.42144C12.3358 9.53249 12.2042 9.69014 12.125 9.875Z" stroke="#E6E6E6" stroke-linecap="round" stroke-linejoin="round"/>
</g>
</g>
<defs>
<clipPath id="clip0_1524_5249">
<rect width="15" height="15" fill="white" transform="translate(0 0.5)"/>
</clipPath>
</defs>
</svg>
