<svg width="15" height="16" viewBox="0 0 15 16" fill="none" xmlns="http://www.w3.org/2000/svg">
<g id="sidebar-flip 1">
<path id="Vector" d="M13.4375 1.75H1.5625C0.70125 1.75 0 2.45063 0 3.3125V14.25H15V3.3125C15 2.45063 14.2987 1.75 13.4375 1.75ZM0.625 3.3125C0.625 2.79562 1.04562 2.375 1.5625 2.375H9.375V13.625H0.625V3.3125ZM14.375 13.625H10V2.375H13.4375C13.9544 2.375 14.375 2.79562 14.375 3.3125V13.625ZM11.25 6.75H13.125V7.375H11.25V6.75ZM11.25 9.25H13.125V9.875H11.25V9.25ZM11.25 4.25H13.125V4.875H11.25V4.25Z" fill="#F8F8F8"/>
</g>
</svg>
