<svg width="30" height="30" viewBox="0 0 30 30" fill="none" xmlns="http://www.w3.org/2000/svg">
<g id="sql-svgrepo-com 1" clip-path="url(#clip0_475_3202)">
<path id="Vector" d="M22.875 19.6875V8.4375H21V21.5625H28.5V19.6875H22.875Z" fill="#F8F8F8"/>
<path id="Vector_2" d="M16.625 8.4375H12.875C12.3777 8.4375 11.9008 8.63504 11.5492 8.98668C11.1975 9.33831 11 9.81522 11 10.3125V19.6875C11 20.1848 11.1975 20.6617 11.5492 21.0133C11.9008 21.365 12.3777 21.5625 12.875 21.5625H13.8125V23.4375C13.8125 23.9348 14.01 24.4117 14.3617 24.7633C14.7133 25.115 15.1902 25.3125 15.6875 25.3125H17.5625V23.4375H15.6875V21.5625H16.625C17.1223 21.5625 17.5992 21.365 17.9508 21.0133C18.3025 20.6617 18.5 20.1848 18.5 19.6875V10.3125C18.5 9.81522 18.3025 9.33831 17.9508 8.98668C17.5992 8.63504 17.1223 8.4375 16.625 8.4375ZM12.875 19.6875V10.3125H16.625V19.6875H12.875Z" fill="#F8F8F8"/>
<path id="Vector_3" d="M7.5 21.5625H1.875V19.6875H7.5V15.9375H3.75C3.25272 15.9375 2.77581 15.74 2.42417 15.3883C2.07254 15.0367 1.875 14.5598 1.875 14.0625V10.3125C1.875 9.81522 2.07254 9.33831 2.42417 8.98668C2.77581 8.63504 3.25272 8.4375 3.75 8.4375H9.375V10.3125H3.75V14.0625H7.5C7.99728 14.0625 8.47419 14.26 8.82582 14.6117C9.17746 14.9633 9.375 15.4402 9.375 15.9375V19.6875C9.375 20.1848 9.17746 20.6617 8.82582 21.0133C8.47419 21.365 7.99728 21.5625 7.5 21.5625Z" fill="#F8F8F8"/>
</g>
<defs>
<clipPath id="clip0_475_3202">
<rect width="30" height="30" fill="white"/>
</clipPath>
</defs>
</svg>
