<svg width="18" height="18" viewBox="0 0 18 18" fill="none" xmlns="http://www.w3.org/2000/svg">
<rect width="18" height="18" rx="9" fill="#3B5F5D"/>
<path d="M12.3333 12.75V11.9167C12.3333 11.4746 12.1577 11.0507 11.8452 10.7382C11.5326 10.4256 11.1087 10.25 10.6667 10.25H7.33333C6.89131 10.25 6.46738 10.4256 6.15482 10.7382C5.84226 11.0507 5.66667 11.4746 5.66667 11.9167V12.75M10.6667 6.91667C10.6667 7.83714 9.92047 8.58333 9 8.58333C8.07952 8.58333 7.33333 7.83714 7.33333 6.91667C7.33333 5.99619 8.07952 5.25 9 5.25C9.92047 5.25 10.6667 5.99619 10.6667 6.91667Z" stroke="#F8F8F8" stroke-linecap="round" stroke-linejoin="round"/>
</svg>
