<svg width="15" height="16" viewBox="0 0 15 16" fill="none" xmlns="http://www.w3.org/2000/svg">
<g id="Users">
<path id="Icon" d="M10.625 13.625V12.375C10.625 11.712 10.3616 11.0761 9.89277 10.6072C9.42393 10.1384 8.78804 9.875 8.125 9.875H3.125C2.46196 9.875 1.82607 10.1384 1.35723 10.6072C0.888392 11.0761 0.625 11.712 0.625 12.375V13.625M14.375 13.625V12.375C14.3746 11.8211 14.1902 11.283 13.8509 10.8452C13.5115 10.4074 13.0363 10.0947 12.5 9.95625M10 2.45625C10.5378 2.59394 11.0144 2.90669 11.3548 3.34519C11.6952 3.7837 11.8799 4.32302 11.8799 4.87813C11.8799 5.43323 11.6952 5.97255 11.3548 6.41106C11.0144 6.84956 10.5378 7.16231 10 7.3M8.125 4.875C8.125 6.25571 7.00571 7.375 5.625 7.375C4.24429 7.375 3.125 6.25571 3.125 4.875C3.125 3.49429 4.24429 2.375 5.625 2.375C7.00571 2.375 8.125 3.49429 8.125 4.875Z" stroke="#E6E6E6" stroke-linecap="round" stroke-linejoin="round"/>
</g>
</svg>
