<svg width="24" height="24" viewBox="0 0 24 24" fill="none" xmlns="http://www.w3.org/2000/svg">
<path d="M17.1086 11.6174C17.1086 10.682 16.773 10.0345 16.4852 9.5302C16.1015 8.90681 15.7415 8.37918 15.7415 7.75555C15.7415 7.05973 16.2694 6.41228 17.0129 6.41228C17.0462 6.41228 17.0787 6.41646 17.1106 6.41818C15.7644 5.18491 13.9706 4.43164 12.0007 4.43164C9.35667 4.43164 7.03106 5.78792 5.67773 7.84271C5.85525 7.84787 6.0227 7.85179 6.16485 7.85179C6.95642 7.85179 8.18159 7.75555 8.18159 7.75555C8.58941 7.73124 8.63753 8.33081 8.23021 8.37893C8.23021 8.37893 7.82018 8.42706 7.36424 8.45087L10.1195 16.6487L11.7758 11.682L10.5966 8.45161C10.1892 8.42779 9.80303 8.37967 9.80303 8.37967C9.39546 8.35561 9.4431 7.73222 9.85091 7.75629C9.85091 7.75629 11.1006 7.85228 11.8438 7.85228C12.6354 7.85228 13.8611 7.75629 13.8611 7.75629C14.2694 7.73222 14.3168 8.3313 13.9092 8.37967C13.9092 8.37967 13.4982 8.42779 13.0432 8.45161L15.7781 16.5866L16.5329 14.0645C16.8599 13.0171 17.1086 12.2651 17.1086 11.6174Z" fill="#F8F8F8"/>
<path d="M4.43262 11.9995C4.43262 14.9949 6.17363 17.5835 8.69786 18.8101L5.08768 8.91992C4.66783 9.86077 4.43262 10.9025 4.43262 11.9995Z" fill="#F8F8F8"/>
<path d="M12.1332 12.6621L9.8623 19.2596C10.5404 19.459 11.2574 19.5682 12.0003 19.5682C12.8815 19.5682 13.7266 19.4157 14.5133 19.139C14.4926 19.1066 14.4745 19.0725 14.459 19.0347L12.1332 12.6621Z" fill="#F8F8F8"/>
<path d="M15.8047 18.541C18.0547 17.2291 19.5678 14.7916 19.5678 12C19.5681 10.6842 19.232 9.44724 18.6407 8.36914C18.6736 8.61 18.6918 8.86903 18.6918 9.14721C18.6918 9.91521 18.5487 10.7785 18.1163 11.8578L15.8047 18.541Z" fill="#F8F8F8"/>
<path d="M12 0C5.37256 0 0 5.37256 0 12C0 18.6274 5.37256 24 12 24C18.6274 24 24 18.6274 24 12C24 5.37256 18.6274 0 12 0ZM12.0002 20.4168C7.35934 20.4168 3.58343 16.6409 3.58343 11.9998C3.58343 7.35885 7.3591 3.58318 12.0002 3.58318C16.6409 3.58318 20.4163 7.35885 20.4163 11.9998C20.4163 16.6409 16.6409 20.4168 12.0002 20.4168Z" fill="#F8F8F8"/>
</svg>
