<svg width="15" height="16" viewBox="0 0 15 16" fill="none" xmlns="http://www.w3.org/2000/svg">
<g clip-path="url(#clip0_2699_16052)">
<path d="M12.1875 9.95063V6.69625L14.9462 3.9375L11.5625 0.55375L9.11625 3H5.59375C5.43563 1.5975 4.25625 0.5 2.8125 0.5C1.26188 0.5 0 1.76188 0 3.3125C0 4.53312 0.78625 5.56375 1.875 5.9525V10.5H0V15.5H5V10.5H3.125V6.09313C4.20687 5.97125 5.09812 5.24312 5.4525 4.25H8.49125L10.9375 6.69625V9.95063C9.6875 10.2362 8.75 11.3519 8.75 12.6875C8.75 14.2381 10.0119 15.5 11.5625 15.5C13.1131 15.5 14.375 14.2381 14.375 12.6875C14.375 11.3519 13.4375 10.2362 12.1875 9.95063ZM3.75 14.25H1.25V11.75H3.75V14.25ZM13.1788 3.9375L11.5625 5.55375L10 3.99125V3.88375L11.5625 2.32125L13.1788 3.9375ZM2.8125 4.875C1.95063 4.875 1.25 4.17375 1.25 3.3125C1.25 2.45125 1.95063 1.75 2.8125 1.75C3.67438 1.75 4.375 2.45125 4.375 3.3125C4.375 4.17375 3.67438 4.875 2.8125 4.875ZM11.5625 14.25C10.7006 14.25 10 13.5494 10 12.6875C10 11.8256 10.7006 11.125 11.5625 11.125C12.4244 11.125 13.125 11.8256 13.125 12.6875C13.125 13.5494 12.4244 14.25 11.5625 14.25Z" fill="#E6E6E6"/>
</g>
<defs>
<clipPath id="clip0_2699_16052">
<rect width="15" height="15" fill="white" transform="translate(0 0.5)"/>
</clipPath>
</defs>
</svg>
