<svg width="20" height="26" viewBox="0 0 20 26" fill="none" xmlns="http://www.w3.org/2000/svg">
<g id="inner">
<rect id="Rectangle 402" y="4.33333" width="4" height="4" transform="rotate(-90 0 4.33333)" fill="#DD9A38"/>
<rect id="Rectangle 403" opacity="0.1" x="5.33333" y="4.33333" width="4" height="4" transform="rotate(-90 5.33333 4.33333)" fill="#F8F8F8"/>
<rect id="Rectangle 404" opacity="0.4" x="10.6667" y="4.33333" width="4" height="4" transform="rotate(-90 10.6667 4.33333)" fill="#F8F8F8"/>
<rect id="Rectangle 405" x="16" y="4.33333" width="4" height="4" transform="rotate(-90 16 4.33333)" fill="#DD9A38"/>
<rect id="Rectangle 408" y="9.66667" width="4" height="4" transform="rotate(-90 0 9.66667)" fill="#DD9A38"/>
<rect id="Rectangle 409" opacity="0.1" x="5.33333" y="9.66667" width="4" height="4" transform="rotate(-90 5.33333 9.66667)" fill="#F8F8F8"/>
<rect id="Rectangle 410" opacity="0.4" x="10.6667" y="9.66667" width="4" height="4" transform="rotate(-90 10.6667 9.66667)" fill="#F8F8F8"/>
<rect id="Rectangle 411" x="16" y="9.66667" width="4" height="4" transform="rotate(-90 16 9.66667)" fill="#DD9A38"/>
<rect id="Rectangle 414" opacity="0.1" y="15" width="4" height="4" transform="rotate(-90 0 15)" fill="#F8F8F8"/>
<rect id="Rectangle 415" x="5.33333" y="15" width="4" height="4" transform="rotate(-90 5.33333 15)" fill="#DD9A38"/>
<rect id="Rectangle 416" x="10.6667" y="15" width="4" height="4" transform="rotate(-90 10.6667 15)" fill="#DD9A38"/>
<rect id="Rectangle 417" x="16" y="15" width="4" height="4" transform="rotate(-90 16 15)" fill="#DD9A38"/>
<rect id="Rectangle 427" opacity="0.1" x="5.33333" y="20.3333" width="4" height="4" transform="rotate(-90 5.33333 20.3333)" fill="#F8F8F8"/>
<rect id="Rectangle 428" opacity="0.4" x="10.6667" y="20.3333" width="4" height="4" transform="rotate(-90 10.6667 20.3333)" fill="#F8F8F8"/>
<rect id="Rectangle 429" x="16" y="20.3333" width="4" height="4" transform="rotate(-90 16 20.3333)" fill="#DD9A38"/>
<rect id="Rectangle 432" opacity="0.1" y="25.6667" width="4" height="4" transform="rotate(-90 0 25.6667)" fill="#F8F8F8"/>
<rect id="Rectangle 433" x="5.33333" y="25.6667" width="4" height="4" transform="rotate(-90 5.33333 25.6667)" fill="#DD9A38"/>
<rect id="Rectangle 434" x="10.6667" y="25.6667" width="4" height="4" transform="rotate(-90 10.6667 25.6667)" fill="#DD9A38"/>
</g>
</svg>
