<svg width="20" height="26" viewBox="0 0 20 26" fill="none" xmlns="http://www.w3.org/2000/svg">
<g id="inner">
<rect id="Rectangle 402" y="4.33333" width="4" height="4" transform="rotate(-90 0 4.33333)" fill="#DD9A38"/>
<rect id="Rectangle 403" opacity="0.1" x="5.3335" y="4.33333" width="4" height="4" transform="rotate(-90 5.3335 4.33333)" fill="#1B1B1B"/>
<rect id="Rectangle 404" opacity="0.4" x="10.6665" y="4.33333" width="4" height="4" transform="rotate(-90 10.6665 4.33333)" fill="#1B1B1B"/>
<rect id="Rectangle 405" x="16" y="4.33333" width="4" height="4" transform="rotate(-90 16 4.33333)" fill="#DD9A38"/>
<rect id="Rectangle 408" y="9.66667" width="4" height="4" transform="rotate(-90 0 9.66667)" fill="#DD9A38"/>
<rect id="Rectangle 409" opacity="0.1" x="5.3335" y="9.66667" width="4" height="4" transform="rotate(-90 5.3335 9.66667)" fill="#1B1B1B"/>
<rect id="Rectangle 410" opacity="0.4" x="10.6665" y="9.66667" width="4" height="4" transform="rotate(-90 10.6665 9.66667)" fill="#1B1B1B"/>
<rect id="Rectangle 411" x="16" y="9.66667" width="4" height="4" transform="rotate(-90 16 9.66667)" fill="#DD9A38"/>
<rect id="Rectangle 414" opacity="0.1" y="15" width="4" height="4" transform="rotate(-90 0 15)" fill="#1B1B1B"/>
<rect id="Rectangle 415" x="5.3335" y="15" width="4" height="4" transform="rotate(-90 5.3335 15)" fill="#DD9A38"/>
<rect id="Rectangle 416" x="10.6665" y="15" width="4" height="4" transform="rotate(-90 10.6665 15)" fill="#DD9A38"/>
<rect id="Rectangle 417" x="16" y="15" width="4" height="4" transform="rotate(-90 16 15)" fill="#DD9A38"/>
<rect id="Rectangle 427" opacity="0.1" x="5.3335" y="20.3333" width="4" height="4" transform="rotate(-90 5.3335 20.3333)" fill="#1B1B1B"/>
<rect id="Rectangle 428" opacity="0.4" x="10.6665" y="20.3333" width="4" height="4" transform="rotate(-90 10.6665 20.3333)" fill="#1B1B1B"/>
<rect id="Rectangle 429" x="16" y="20.3333" width="4" height="4" transform="rotate(-90 16 20.3333)" fill="#DD9A38"/>
<rect id="Rectangle 432" opacity="0.1" y="25.6667" width="4" height="4" transform="rotate(-90 0 25.6667)" fill="#1B1B1B"/>
<rect id="Rectangle 433" x="5.3335" y="25.6667" width="4" height="4" transform="rotate(-90 5.3335 25.6667)" fill="#DD9A38"/>
<rect id="Rectangle 434" x="10.6665" y="25.6667" width="4" height="4" transform="rotate(-90 10.6665 25.6667)" fill="#DD9A38"/>
</g>
</svg>
