<svg width="30" height="38" viewBox="0 0 30 38" fill="none" xmlns="http://www.w3.org/2000/svg">
<g id="inner">
<rect id="Rectangle 402" y="6" width="6" height="6" transform="rotate(-90 0 6)" fill="#DD9A38"/>
<rect id="Rectangle 403" opacity="0.1" x="8" y="6" width="6" height="6" transform="rotate(-90 8 6)" fill="#1B1B1B"/>
<rect id="Rectangle 404" opacity="0.4" x="16" y="6" width="6" height="6" transform="rotate(-90 16 6)" fill="#1B1B1B"/>
<rect id="Rectangle 405" x="24" y="6" width="6" height="6" transform="rotate(-90 24 6)" fill="#DD9A38"/>
<rect id="Rectangle 408" y="14" width="6" height="6" transform="rotate(-90 0 14)" fill="#DD9A38"/>
<rect id="Rectangle 409" opacity="0.1" x="8" y="14" width="6" height="6" transform="rotate(-90 8 14)" fill="#1B1B1B"/>
<rect id="Rectangle 410" opacity="0.4" x="16" y="14" width="6" height="6" transform="rotate(-90 16 14)" fill="#1B1B1B"/>
<rect id="Rectangle 411" x="24" y="14" width="6" height="6" transform="rotate(-90 24 14)" fill="#DD9A38"/>
<rect id="Rectangle 414" opacity="0.1" y="22" width="6" height="6" transform="rotate(-90 0 22)" fill="#1B1B1B"/>
<rect id="Rectangle 415" x="8" y="22" width="6" height="6" transform="rotate(-90 8 22)" fill="#DD9A38"/>
<rect id="Rectangle 416" x="16" y="22" width="6" height="6" transform="rotate(-90 16 22)" fill="#DD9A38"/>
<rect id="Rectangle 417" x="24" y="22" width="6" height="6" transform="rotate(-90 24 22)" fill="#DD9A38"/>
<rect id="Rectangle 427" opacity="0.1" x="8" y="30" width="6" height="6" transform="rotate(-90 8 30)" fill="#1B1B1B"/>
<rect id="Rectangle 428" opacity="0.4" x="16" y="30" width="6" height="6" transform="rotate(-90 16 30)" fill="#1B1B1B"/>
<rect id="Rectangle 429" x="24" y="30" width="6" height="6" transform="rotate(-90 24 30)" fill="#DD9A38"/>
<rect id="Rectangle 432" opacity="0.1" y="38" width="6" height="6" transform="rotate(-90 0 38)" fill="#1B1B1B"/>
<rect id="Rectangle 433" x="8" y="38" width="6" height="6" transform="rotate(-90 8 38)" fill="#DD9A38"/>
<rect id="Rectangle 434" x="16" y="38" width="6" height="6" transform="rotate(-90 16 38)" fill="#DD9A38"/>
</g>
</svg>
